# xmcd
#
# Track frame offsets:
#	152
#	15741
#	31668
#	53184
#	71801
#	82128
#	95715
#	121936
#	135853
#	148092
#	162284
#	177252
#	195860
#	209953
#	222446
#	244054
#	260907
#	286416
#	307689
#	324759
#	340525
#
# Disc length: 4762
#
# Revision: 1
# Processed by: cddbd v1.5.1PL0 Copyright (c) Steve Scherf et al.
# Submitted via: CDex 1.51
# Normalized: r0:DSETVAR1
#
DISCID=33129815
DTITLE=Various Artist - The Jazz Album 2003
DYEAR=2003
DGENRE=Jazz
TTITLE0=Nat King COLE - Unforgettable
TTITLE1=Ella FITZGERALD - Ev'ry Time We Say Goodbye
TTITLE2=George BENSON - Giblet Gravy
TTITLE3=Courtney PINE and Kele LE ROC - Love and Affection
TTITLE4=Louis ARMSTRONG - What a Wonderful World
TTITLE5=Nina SIMONE - My Baby Just Cares for Me
TTITLE6=Stan GETZ - Desafinado
TTITLE7=Etta JAMES - I Just Want to Make Love to You
TTITLE8=Quincy JONES - Soul Bossa Nova
TTITLE9=Shirley HORN - Hit the Road Jack
TTITLE10=Wes MONTGOMERY - Tequila
TTITLE11=Natalie COLE - Tell Me All About It
TTITLE12=Stephane GRAPPELLI - Cheek to Cheek
TTITLE13=Dinah WASHINGTON - Mad About the Boy
TTITLE14=Oscar PETERSON - Night Train
TTITLE15=Billie HOLIDAY - Lady Sings the Blues
TTITLE16=Dizzy GILLESPIE, Sonny ROLLINS and Sonny STITT - On the Sunny Side of the Street
TTITLE17=Cleo LAINE - Just the Way You Ara
TTITLE18=Count BASIE and His Orchestra - April in Paris
TTITLE19=Charlie PARKER - Just Friends
TTITLE20=Chet BAKER - Everything Happens to Me
EXTD=YEAR: 2003
EXTT0=
EXTT1=
EXTT2=
EXTT3=
EXTT4=
EXTT5=
EXTT6=
EXTT7=
EXTT8=
EXTT9=
EXTT10=
EXTT11=
EXTT12=
EXTT13=
EXTT14=
EXTT15=
EXTT16=
EXTT17=
EXTT18=
EXTT19=
EXTT20=
PLAYORDER=
